<svg xmlns="http://www.w3.org/2000/svg" viewBox="0 0 1909 500">
  <rect x="0" y="0" width="1909" height="500" rx="36" ry="36" fill="#FFFFFF"/>
  <g transform="translate(40,40)">
    <g transform="translate(0,420) scale(0.1,-0.1)">
      <path d="M3117 3764 c-16 -32 -20 -34 -66 -34 -60 0 -66 -11 -36 -70 l23 -45
-29 -58 c-17 -32 -27 -63 -23 -69 4 -7 28 -8 65 -4 l59 6 26 -40 c28 -42 33
-42 68 12 13 20 28 28 65 33 70 9 75 15 46 57 -30 45 -31 54 -3 98 11 19 22
45 24 58 2 21 -1 22 -67 22 -66 0 -69 1 -91 33 -30 42 -42 43 -61 1z M535
3198 c141 -153 333 -405 455 -601 336 -538 520 -1103 520 -1600 0 -111 3 -166
10 -162 6 4 8 10 5 15 -3 4 -1 10 3 12 5 1 39 75 77 163 77 183 76 175 29 395
-101 473 -325 928 -660 1347 -91 113 -393 425 -404 418 -5 -3 -25 15 -45 40
-21 25 -42 45 -47 45 -5 0 20 -33 57 -72z M3850 3158 c0 -7 44 -210 97 -450
l97 -438 87 0 c75 0 88 3 93 18 3 9 37 136 76 282 39 146 72 269 73 273 1 5
31 -101 66 -235 35 -134 70 -264 78 -290 l14 -48 87 0 88 0 97 438 c53 240 97
443 97 450 0 8 -24 12 -84 12 l-84 0 -15 -67 c-8 -38 -37 -166 -63 -286 -27
-120 -50 -214 -52 -208 -2 6 -36 133 -76 283 l-72 273 -79 0 -78 0 -73 -274
c-41 -151 -75 -278 -76 -283 -2 -6 -25 89 -52 209 -26 120 -55 248 -63 286
l-15 67 -84 0 c-60 0 -84 -4 -84 -12z M6034 3148 c3 -13 72 -214 154 -448
l148 -425 89 0 89 0 148 425 c82 234 151 435 154 448 6 23 6 23 -82 20 l-89
-3 -68 -195 c-37 -107 -86 -250 -110 -317 l-42 -122 -110 317 -110 317 -89 3
c-88 3 -88 3 -82 -20z M1783 1863 c-27 -65 -63 -222 -79 -347 -13 -96 -15
-163 -9 -326 4 -113 8 -231 9 -262 0 -32 3 -58 6 -58 13 1 32 23 120 135 222
286 331 492 347 660 7 80 -8 124 -57 169 -51 46 -122 66 -232 66 l-89 0 -16
-37z" fill="#FAA53B"/>
      <path d="M2262 3384 c-83 -43 -117 -156 -73 -243 51 -99 183 -121 262 -42 83
82 72 204 -23 274 -37 28 -122 33 -166 11z M2859 3136 c-53 -51 -134 -122
-179 -156 -97 -74 -247 -170 -266 -170 -7 0 -15 18 -19 40 -11 64 -28 48 -18
-17 4 -32 7 -137 6 -233 -3 -428 -143 -964 -389 -1487 -60 -128 -50 -137 34
-31 131 165 256 392 323 586 17 50 34 92 38 92 3 0 19 -39 36 -86 39 -115 131
-305 201 -412 68 -105 193 -262 208 -262 6 0 4 5 -4 10 -8 5 -12 10 -8 10 4 0
-17 51 -47 113 -106 225 -215 527 -286 792 -31 117 -32 125 -30 310 2 178 -12
363 -38 500 -9 48 0 82 19 70 15 -9 157 37 246 80 102 49 190 122 230 191 31
53 57 135 47 145 -5 4 -51 -34 -104 -85z M10740 2720 l0 -450 85 0 85 0 0 205
0 205 135 0 135 0 0 85 0 85 -135 0 -135 0 0 75 0 75 135 0 135 0 0 85 0 85
-220 0 -220 0 0 -450z M2361 2938 c-1 -16 4 -28 9 -28 12 0 12 8 0 35 -8 18
-9 17 -9 -7z M2285 2760 c3 -5 10 -10 16 -10 5 0 9 5 9 10 0 6 -7 10 -16 10
-8 0 -12 -4 -9 -10z M2150 2750 c-36 -4 -140 -8 -232 -9 -92 0 -169 -5 -172
-10 -9 -13 111 -44 195 -49 42 -2 107 1 144 7 87 15 196 51 189 62 -6 10 -27
10 -124 -1z" fill="#599B44"/>
      <path d="M9940 1436 c-14 -8 -44 -20 -67 -27 -47 -13 -58 -39 -18 -39 14 0 25
-2 25 -4 0 -2 -23 -80 -50 -172 -28 -93 -53 -188 -57 -210 -5 -37 -3 -44 21
-59 38 -25 125 -15 178 20 95 63 149 223 97 289 -31 39 -60 33 -123 -25 l-55
-50 15 53 c9 29 29 89 45 132 40 110 39 119 -11 92z m54 -321 c-1 -91 -52
-175 -106 -175 -37 0 -32 92 10 159 27 45 66 82 82 79 12 -3 15 -17 14 -63z
M10285 1428 c-27 -11 -60 -24 -72 -29 -33 -12 -28 -29 7 -29 17 0 30 -3 30 -6
0 -3 -29 -101 -65 -218 -36 -116 -65 -218 -65 -225 0 -23 59 -4 111 36 27 20
49 40 49 44 0 16 -18 18 -30 4 -22 -27 -33 -17 -25 23 4 20 34 120 68 222 33
102 60 187 59 190 -2 10 -19 7 -67 -12z M13505 1428 c-27 -11 -60 -24 -72 -29
-33 -12 -28 -29 7 -29 17 0 30 -3 30 -6 0 -3 -29 -101 -65 -218 -36 -116 -65
-218 -65 -225 0 -23 59 -4 111 36 27 20 49 40 49 44 0 16 -18 18 -30 4 -22
-27 -33 -17 -25 23 4 20 34 120 68 222 33 102 60 187 59 190 -2 10 -19 7 -67
-12z M15425 1411 c-64 -30 -90 -64 -90 -122 0 -46 3 -51 64 -113 58 -59 64
-69 69 -115 4 -46 2 -53 -26 -81 -61 -61 -142 -25 -142 65 0 52 -25 64 -36 18
-3 -16 -12 -50 -20 -76 -13 -48 -13 -48 14 -58 43 -17 143 -22 190 -10 87 24
143 105 128 186 -5 26 -22 52 -59 88 -95 94 -110 138 -61 176 58 45 124 14
124 -59 0 -59 25 -52 45 13 9 28 18 57 21 63 7 16 -80 44 -135 44 -25 0 -64
-9 -86 -19z M8627 1413 c-14 -14 -6 -22 28 -29 32 -6 34 -9 29 -33 -5 -20 -80
-272 -111 -372 -3 -10 -22 -20 -46 -25 -22 -5 -42 -15 -45 -21 -3 -10 46 -13
221 -13 l225 0 25 68 c26 71 19 95 -15 51 -66 -83 -57 -79 -167 -79 l-100 0 9
28 c5 15 18 60 30 100 l21 73 57 -3 57 -3 3 -37 c4 -51 28 -50 42 2 5 22 15
58 21 81 5 22 13 47 16 55 10 27 -22 14 -50 -21 -26 -32 -32 -35 -81 -35 l-53
0 26 90 26 91 85 -3 85 -3 3 -42 c4 -56 27 -57 42 -2 6 23 16 52 20 65 l10 24
-204 0 c-111 0 -206 -3 -209 -7z M10485 1396 c-20 -30 -16 -65 8 -80 22 -14
49 2 62 38 19 55 -39 90 -70 42z M12487 1413 c-14 -14 -6 -22 28 -29 19 -3 35
-10 35 -15 0 -13 -100 -340 -115 -376 -10 -23 -21 -33 -35 -33 -26 0 -60 -17
-60 -31 0 -14 262 -7 267 7 2 7 -13 16 -34 21 -30 7 -37 13 -35 29 5 30 111
357 121 374 6 8 25 19 42 25 18 6 35 17 37 23 3 9 -29 12 -120 12 -69 0 -128
-3 -131 -7z M14355 1396 c-20 -30 -16 -65 8 -80 22 -14 49 2 62 38 19 55 -39
90 -70 42z M16405 1396 c-20 -30 -16 -65 8 -80 22 -14 49 2 62 38 19 55 -39
90 -70 42z M16902 1319 c-19 -22 -53 -52 -75 -67 -41 -26 -41 -27 -16 -30 l26
-3 -40 -139 c-22 -76 -37 -146 -34 -154 13 -34 79 -11 148 51 43 39 43 65 -1
33 -28 -20 -50 -26 -50 -14 0 11 31 128 46 177 15 46 16 47 59 47 26 0 47 6
55 15 11 13 6 15 -39 15 -28 0 -51 2 -51 4 0 3 4 15 9 28 32 87 16 102 -37 37z
M9120 1239 c-48 -29 -100 -80 -94 -91 4 -5 16 0 29 12 13 12 25 18 28 13 3 -5
-12 -63 -34 -128 -21 -66 -39 -121 -39 -123 0 -2 19 -2 42 0 40 3 42 5 58 53
28 81 56 129 99 168 72 65 75 55 25 -96 -37 -110 -38 -137 -7 -137 36 0 148
83 137 101 -3 5 -16 1 -30 -7 -13 -9 -26 -15 -28 -13 -2 2 11 53 30 114 19 60
34 119 32 130 -7 50 -95 17 -171 -64 -26 -27 -47 -49 -47 -48 0 1 9 26 21 56
30 81 15 100 -51 60z M10455 1243 c-48 -25 -106 -74 -100 -84 4 -5 17 -2 31 7
32 22 31 15 -13 -123 -39 -121 -37 -141 10 -129 33 8 129 84 122 96 -4 6 -17
3 -31 -6 -13 -9 -26 -15 -29 -13 -2 3 14 56 36 118 21 63 39 122 39 133 0 22
-24 23 -65 1z M10660 1239 c-48 -29 -100 -80 -94 -91 4 -5 16 0 29 12 13 12
25 18 28 13 3 -5 -12 -63 -34 -128 -21 -66 -39 -121 -39 -123 0 -2 19 -2 42 0
40 3 42 5 58 53 28 81 56 129 99 168 72 65 75 55 25 -96 -37 -110 -38 -137 -7
-137 36 0 148 83 137 101 -3 5 -16 1 -30 -7 -13 -9 -26 -15 -28 -13 -2 2 11
53 30 114 19 60 34 119 32 130 -7 50 -95 17 -171 -64 -26 -27 -47 -49 -47 -48
0 1 9 26 21 56 30 81 15 100 -51 60z M11051 1238 c-56 -29 -82 -64 -88 -119
-4 -35 0 -48 17 -66 11 -13 27 -23 35 -23 22 0 19 -7 -26 -47 -30 -27 -39 -42
-35 -57 4 -17 -4 -26 -42 -46 -60 -32 -64 -64 -12 -94 52 -31 187 -30 251 2
81 40 92 105 22 135 -21 9 -58 22 -82 28 -70 21 -65 61 9 74 82 14 144 85 138
158 -3 29 0 37 13 37 9 0 22 7 29 15 11 13 8 15 -21 15 -19 0 -63 3 -99 6 -55
5 -72 2 -109 -18z m94 -29 c18 -57 -24 -159 -66 -159 -26 0 -33 21 -25 73 13
84 74 141 91 86z m-20 -370 c0 -43 -88 -65 -145 -36 -34 17 -36 42 -5 71 l26
24 62 -17 c54 -15 62 -21 62 -42z M11930 1239 c-48 -29 -100 -80 -94 -91 4 -5
16 0 29 12 13 12 25 18 28 13 3 -5 -12 -63 -34 -128 -21 -66 -39 -121 -39
-123 0 -2 19 -2 42 0 40 3 42 5 58 53 28 81 56 129 99 168 72 65 75 55 25 -96
-37 -110 -38 -137 -7 -137 36 0 148 83 137 101 -3 5 -16 1 -30 -7 -13 -9 -26
-15 -28 -13 -2 2 11 53 30 114 19 60 34 119 32 130 -7 50 -95 17 -171 -64 -26
-27 -47 -49 -47 -48 0 1 9 26 21 56 30 81 15 100 -51 60z M12780 1239 c-48
-29 -100 -80 -94 -91 4 -5 16 0 29 12 13 12 25 18 28 13 3 -5 -12 -63 -34
-128 -21 -66 -39 -121 -39 -123 0 -2 19 -2 42 0 40 3 42 5 58 53 28 81 56 129
99 168 72 65 75 55 25 -96 -37 -110 -38 -137 -7 -137 36 0 148 83 137 101 -3
5 -16 1 -30 -7 -13 -9 -26 -15 -28 -13 -2 2 11 53 30 114 19 60 34 119 32 130
-7 50 -95 17 -171 -64 -26 -27 -47 -49 -47 -48 0 1 9 26 21 56 30 81 15 100
-51 60z M13220 1244 c-78 -34 -138 -118 -147 -208 -14 -131 84 -166 196 -70
52 45 42 67 -14 30 -21 -14 -46 -26 -56 -26 -62 0 -45 162 24 238 38 41 87 20
87 -37 0 -38 28 -22 44 24 15 46 15 46 -10 55 -36 14 -83 12 -124 -6z M13675
1248 c-34 -18 -104 -91 -98 -101 3 -5 14 1 24 14 32 43 30 13 -6 -98 -48 -150
-46 -161 22 -148 26 5 53 24 98 68 l61 62 -19 -54 c-20 -59 -17 -81 10 -81 37
0 148 83 137 102 -3 5 -17 2 -31 -7 -14 -9 -27 -14 -30 -11 -3 3 10 60 30 128
19 68 34 123 34 124 -1 0 -20 -1 -42 -3 -40 -5 -41 -5 -58 -66 -10 -34 -34
-83 -52 -109 -35 -48 -81 -85 -92 -75 -3 3 11 60 32 126 42 138 39 162 -20
129z M14044 1246 c-39 -17 -64 -52 -64 -87 0 -16 20 -53 50 -94 28 -37 50 -75
50 -84 0 -24 -20 -41 -46 -41 -24 0 -64 42 -64 67 0 27 -21 8 -40 -35 l-19
-43 25 -9 c64 -25 173 2 208 51 30 44 15 97 -50 173 -41 48 -44 73 -7 82 20 6
31 2 45 -16 10 -12 18 -28 18 -36 0 -27 18 -14 33 24 9 21 12 41 6 46 -15 16
-112 17 -145 2z M14325 1243 c-48 -25 -106 -74 -100 -84 4 -5 17 -2 31 7 32
22 31 15 -13 -123 -39 -121 -37 -141 10 -129 33 8 129 84 122 96 -4 6 -17 3
-31 -6 -13 -9 -26 -15 -29 -13 -2 3 14 56 36 118 21 63 39 122 39 133 0 22
-24 23 -65 1z M14670 1225 c-33 -34 -33 -36 -15 -49 17 -12 18 -17 6 -42 -7
-15 -27 -46 -44 -68 l-32 -40 -6 102 c-3 56 -10 107 -16 113 -6 6 -21 8 -33 4
-31 -10 -111 -85 -104 -97 3 -5 14 -2 25 8 11 9 22 14 27 10 4 -4 8 -63 10
-132 3 -110 6 -124 21 -124 19 0 186 181 213 232 22 43 23 81 0 101 -17 16
-20 15 -52 -18z M14915 1249 c-42 -12 -101 -63 -130 -114 -31 -53 -43 -132
-25 -175 23 -56 66 -64 145 -26 68 32 87 48 76 64 -6 11 -15 9 -42 -7 -61 -37
-99 -20 -99 43 0 21 7 27 50 39 91 27 150 82 150 141 0 42 -52 57 -125 35z
m33 -51 c4 -30 -45 -92 -78 -101 -18 -4 -20 -2 -14 16 22 73 55 122 78 114 6
-2 12 -15 14 -29z M15754 1231 c-98 -57 -151 -189 -109 -271 18 -35 43 -50 85
-50 112 0 221 136 207 258 -10 92 -87 118 -183 63z m90 -34 c22 -61 -32 -239
-76 -253 -35 -11 -51 21 -44 92 12 145 90 248 120 161z M16130 1244 c-78 -34
-138 -118 -147 -208 -14 -131 84 -166 196 -70 52 45 42 67 -14 30 -21 -14 -46
-26 -56 -26 -62 0 -45 162 24 238 38 41 87 20 87 -37 0 -38 28 -22 44 24 15
46 15 46 -10 55 -36 14 -83 12 -124 -6z M16375 1243 c-48 -25 -106 -74 -100
-84 4 -5 17 -2 31 7 32 22 31 15 -13 -123 -39 -121 -37 -141 10 -129 33 8 129
84 122 96 -4 6 -17 3 -31 -6 -13 -9 -26 -15 -29 -13 -2 3 14 56 36 118 21 63
39 122 39 133 0 22 -24 23 -65 1z M16645 1249 c-42 -12 -101 -63 -130 -114
-31 -53 -43 -132 -25 -175 23 -56 66 -64 145 -26 68 32 87 48 76 64 -6 11 -15
9 -42 -7 -61 -37 -99 -20 -99 43 0 21 7 27 50 39 91 27 150 82 150 141 0 42
-52 57 -125 35z m33 -51 c4 -30 -45 -92 -78 -101 -18 -4 -20 -2 -14 16 22 73
55 122 78 114 6 -2 12 -15 14 -29z M9580 1237 c-50 -16 -143 -112 -158 -163
-47 -159 47 -216 152 -92 l37 42 -16 -44 c-18 -50 -14 -70 12 -70 37 0 148 83
137 102 -3 5 -17 2 -31 -7 -14 -9 -27 -14 -29 -12 -7 7 24 123 51 189 13 31
20 59 17 62 -9 10 -135 5 -172 -7z m64 -54 c-1 -18 -15 -62 -32 -97 -47 -100
-112 -129 -112 -49 0 80 75 188 124 181 17 -2 21 -10 20 -35z M11630 1237
c-50 -16 -143 -112 -158 -163 -47 -159 47 -216 152 -92 l37 42 -16 -44 c-18
-50 -14 -70 12 -70 37 0 148 83 137 102 -3 5 -17 2 -31 -7 -14 -9 -27 -14 -29
-12 -7 7 24 123 51 189 13 31 20 59 17 62 -9 10 -135 5 -172 -7z m64 -54 c-1
-18 -15 -62 -32 -97 -47 -100 -112 -129 -112 -49 0 80 75 188 124 181 17 -2
21 -10 20 -35z M17051 1204 c-51 -46 -61 -78 -15 -48 13 9 27 15 29 12 8 -7
23 -105 29 -189 l7 -76 -47 -42 c-44 -42 -53 -44 -96 -26 -12 5 -21 -2 -33
-25 -20 -39 -15 -45 38 -45 54 0 96 31 199 150 157 180 201 265 160 315 l-19
24 -34 -33 c-29 -29 -31 -34 -16 -43 9 -5 17 -16 17 -24 0 -21 -28 -72 -64
-119 l-31 -39 -12 106 c-12 110 -24 148 -47 148 -8 0 -37 -21 -65 -46z M2554
1055 c-27 -18 -224 -277 -224 -293 0 -17 5 -16 64 14 61 31 113 79 170 159 67
93 72 106 50 122 -23 17 -35 16 -60 -2z M2678 1018 c-48 -45 -128 -142 -128
-157 0 -28 130 36 161 80 23 33 32 99 13 106 -5 2 -26 -11 -46 -29z M1769 886
c-2 -3 -36 -11 -75 -20 -82 -17 -280 -92 -290 -109 -4 -7 -4 -9 1 -5 4 4 13 4
19 -1 6 -5 54 -21 106 -36 52 -15 154 -50 225 -77 195 -75 270 -92 385 -85
164 10 280 52 498 181 116 69 148 97 139 121 -14 34 -79 18 -258 -67 -156 -73
-181 -82 -244 -85 -78 -5 -176 7 -176 21 0 5 32 17 70 27 86 22 123 44 119 73
-3 18 -9 21 -43 19 -139 -9 -192 -5 -270 21 -71 23 -192 36 -206 22z" fill="#531818"/>
      <path d="M5024 3166 c-26 -26 -34 -42 -34 -71 0 -29 8 -45 34 -71 26 -26 42
-34 71 -34 52 0 105 53 105 105 0 52 -53 105 -105 105 -29 0 -45 -8 -71 -34z
M6954 3166 c-26 -26 -34 -42 -34 -71 0 -52 53 -105 105 -105 52 0 105 53 105
105 0 52 -53 105 -105 105 -29 0 -45 -8 -71 -34z M15654 3166 c-26 -26 -34
-42 -34 -71 0 -52 53 -105 105 -105 52 0 105 53 105 105 0 52 -53 105 -105
105 -29 0 -45 -8 -71 -34z M14130 3024 l0 -166 -22 16 c-13 9 -43 27 -68 39
-63 30 -185 31 -251 0 -63 -28 -125 -93 -158 -162 -22 -48 -26 -69 -26 -151 0
-84 3 -102 28 -151 30 -63 92 -126 159 -161 63 -33 194 -33 258 1 25 13 53 30
63 39 16 14 17 13 17 -21 l0 -37 85 0 85 0 0 460 0 460 -85 0 -85 0 0 -166z
m-103 -249 c50 -21 72 -42 94 -90 33 -73 16 -180 -37 -227 -30 -26 -89 -48
-131 -48 -193 1 -254 282 -79 361 50 23 105 24 153 4z M15300 3060 l0 -130
-45 0 -45 0 0 -70 0 -70 45 0 45 0 0 -260 0 -260 85 0 85 0 0 260 0 260 50 0
50 0 0 70 0 70 -50 0 -50 0 0 130 0 130 -85 0 -85 0 0 -130z M5620 2931 c-35
-11 -92 -40 -112 -59 -17 -14 -18 -13 -18 21 l0 37 -85 0 -85 0 0 -330 0 -330
84 0 85 0 3 203 c3 228 11 259 75 298 41 26 105 22 135 -9 31 -30 38 -84 38
-294 l0 -198 85 0 85 0 0 238 c0 253 -6 296 -47 351 -48 63 -162 96 -243 72z
M7550 2931 c-35 -11 -92 -40 -112 -59 -17 -14 -18 -13 -18 21 l0 37 -85 0 -85
0 0 -330 0 -330 84 0 85 0 3 203 c3 228 11 259 75 298 41 26 105 22 135 -9 31
-30 38 -84 38 -294 l0 -198 85 0 85 0 0 238 c0 253 -6 296 -47 351 -48 63
-162 96 -243 72z M8185 2922 c-227 -79 -290 -405 -111 -570 75 -69 119 -87
216 -87 86 0 142 18 193 63 16 14 17 13 17 -21 l0 -37 85 0 85 0 0 330 0 330
-85 0 -85 0 0 -35 0 -35 -39 26 c-82 54 -185 67 -276 36z m212 -147 c50 -21
72 -42 94 -90 33 -73 16 -180 -37 -227 -30 -26 -89 -48 -131 -48 -193 1 -254
282 -79 361 50 23 105 24 153 4z M9735 2922 c-227 -79 -290 -405 -111 -570 75
-69 119 -87 216 -87 86 0 142 18 193 63 16 14 17 13 17 -21 l0 -37 85 0 85 0
0 330 0 330 -85 0 -85 0 0 -35 0 -35 -39 26 c-82 54 -185 67 -276 36z m212
-147 c50 -21 72 -42 94 -90 33 -73 16 -180 -37 -227 -30 -26 -89 -48 -131 -48
-193 1 -254 282 -79 361 50 23 105 24 153 4z M11555 2931 c-100 -27 -197 -107
-236 -194 -33 -74 -33 -200 0 -274 28 -63 113 -146 178 -175 121 -53 279 -27
377 63 81 74 111 141 111 249 0 73 -4 93 -28 141 -55 113 -174 190 -301 195
-39 2 -84 -1 -101 -5z m152 -152 c94 -35 140 -164 94 -265 -62 -137 -260 -137
-322 0 -58 128 25 274 158 276 23 0 54 -5 70 -11z M13170 2931 c-35 -11 -92
-40 -112 -59 -17 -14 -18 -13 -18 21 l0 37 -85 0 -85 0 0 -330 0 -330 84 0 85
0 3 203 c3 228 11 259 75 298 41 26 105 22 135 -9 31 -30 38 -84 38 -294 l0
-198 85 0 85 0 0 238 c0 253 -6 296 -47 351 -48 63 -162 96 -243 72z M14635
2922 c-227 -79 -290 -405 -111 -570 75 -69 119 -87 216 -87 86 0 142 18 193
63 16 14 17 13 17 -21 l0 -37 85 0 85 0 0 330 0 330 -85 0 -85 0 0 -35 0 -35
-39 26 c-82 54 -185 67 -276 36z m212 -147 c50 -21 72 -42 94 -90 33 -73 16
-180 -37 -227 -30 -26 -89 -48 -131 -48 -193 1 -254 282 -79 361 50 23 105 24
153 4z M16185 2931 c-100 -27 -197 -107 -236 -194 -33 -74 -33 -200 0 -274 28
-63 113 -146 178 -175 121 -53 279 -27 377 63 81 74 111 141 111 249 0 73 -4
93 -28 141 -55 113 -174 190 -301 195 -39 2 -84 -1 -101 -5z m152 -152 c94
-35 140 -164 94 -265 -62 -137 -260 -137 -322 0 -58 128 25 274 158 276 23 0
54 -5 70 -11z M17050 2931 c-35 -11 -92 -40 -112 -59 -17 -14 -18 -13 -18 21
l0 37 -85 0 -85 0 0 -330 0 -330 84 0 85 0 3 203 c3 228 11 259 75 298 41 26
105 22 135 -9 31 -30 38 -84 38 -294 l0 -198 85 0 85 0 0 238 c0 253 -6 296
-47 351 -48 63 -162 96 -243 72z M5010 2600 l0 -330 85 0 85 0 0 330 0 330
-85 0 -85 0 0 -330z M6940 2600 l0 -330 85 0 85 0 0 330 0 330 -85 0 -85 0 0
-330z M8886 2633 c68 -164 124 -302 124 -306 0 -5 -29 -72 -65 -149 -36 -78
-65 -143 -65 -145 0 -2 37 -3 82 -1 l81 3 203 440 c112 242 203 444 204 448 0
4 -36 7 -81 5 l-80 -3 -90 -195 c-49 -107 -93 -198 -97 -202 -4 -4 -46 84 -92
197 l-85 205 -81 0 -82 0 124 -297z M12122 2703 c5 -245 11 -279 63 -347 14
-18 49 -46 77 -62 48 -26 62 -29 148 -29 109 0 162 18 217 75 69 71 83 137 83
403 l0 187 -85 0 -85 0 0 -205 c0 -219 -5 -251 -50 -290 -34 -30 -120 -28
-154 4 -39 37 -46 79 -46 294 l0 197 -86 0 -86 0 4 -227z M15640 2600 l0 -330
85 0 85 0 0 330 0 330 -85 0 -85 0 0 -330z M2659 1003 l-24 -28 28 24 c25 23
32 31 24 31 -2 0 -14 -12 -28 -27z M2243 693 c9 -2 23 -2 30 0 6 3 -1 5 -18 5
-16 0 -22 -2 -12 -5z" fill="#424242"/>
    </g>
  </g>
</svg>
